<svg
  id="__tmb-262"
  xmlns="http://www.w3.org/2000/svg"
  viewBox="0 0 512 512"
  style="opacity: 1; transition: opacity 0.3s ease 0s; overflow: visible"
>
  <rect x="0" y="0" width="512" height="512" fill="none"></rect>
  <svg
    xmlns="http://www.w3.org/2000/svg"
    viewBox="0 0 512 512"
    data-svgdocument=""
    id="_FGIsOTGpF4pIyn7N7_S2d"
    class="fl-svgdocument"
    overflow="hidden"
    style="overflow: visible"
  >
    <rect fill="#fff" x="0" y="0" width="100%" height="100%"></rect>
    <g id="_38ggrmtWhYNkqam6r6AHd">
      <path
        id="_2NgeK9Dpuh65GirbrdBRM"
        fill="#ff9796"
        d="M37.029 9.274C37.389 8.888 37.254 9 36.727 9h-4.15c-0.527 0-1.119-0.024-1.314 0.464l-3.76 9.186     c-0.197 0.488-0.061 0.683 0.303 0.299L37.029 9.274z"
        stroke="none"
        transform="matrix(2.1398797035217285, 0, 0, 2.1398797035217285, 197.18202209472656, 125.91460418701172)"
        stroke-width="1"
      ></path>
      <path
        id="_LCGGNDUG1-YIWTDFHT82C"
        fill="#ff9796"
        d="M14.362 9c-0.526 0-0.659-0.112-0.295 0.267l9.146 9.353c0.364 0.382 0.509 0.184 0.32-0.308L20.04 9.525     C19.851 9.032 19.267 9 18.74 9H14.362z"
        stroke="none"
        transform="matrix(2.1398797035217285, 0, 0, 2.1398797035217285, 196.2211456298828, 126.52583312988281)"
        stroke-width="1"
      ></path>
      <path
        id="_0Dq8gssIM3bbcIsK1ITdS"
        fill="#ff9796"
        d="M29.811 9.464C30.004 8.976 29.732 9 29.207 9h-7.109c-0.527 0-0.804-0.022-0.616 0.472l3.724 9.543     c0.188 0.493 0.503 0.602 0.697 0.113L29.811 9.464z"
        stroke="none"
        transform="matrix(2.1398797035217285, 0, 0, 2.1398797035217285, 196.0896759033203, 125.88269805908203)"
        stroke-width="1"
      ></path>
      <path
        id="_FbGe7un1qeflXE3Rd96w_"
        fill="#ff9796"
        d="M23.76 2.505C24.098 2.101 23.944 2 23.417 2h-4.586c-0.529 0-0.704 0.12-0.395 0.545l1.894 2.487     c0.311 0.428 0.841 0.502 1.18 0.098L23.76 2.505z"
        stroke="none"
        transform="matrix(2.1398797035217285, 0, 0, 2.1398797035217285, 196.9986572265625, 125.00743103027344)"
        stroke-width="1"
      ></path>
      <path
        id="_0O8S8hsAvcykxlw-eBDPi"
        fill="#ff9796"
        d="M32.439 2.503C32.779 2.1 32.627 2 32.1 2h-4.947c-0.529 0-0.688 0.104-0.355 0.514l2.158 2.533     c0.332 0.408 0.885 0.472 1.225 0.069L32.439 2.503z"
        stroke="none"
        transform="matrix(2.1398797035217285, 0, 0, 2.1398797035217285, 197.18955993652344, 125.00743103027344)"
        stroke-width="1"
      ></path>
      <path
        id="_VycOs91rnVZggeztiKmx9"
        fill="#ff9796"
        d="M13.881 6.655C13.544 7.06 13.702 8 14.228 8h4.837c0.526 0 0.704-0.956 0.393-1.382L17.43 3.53     c-0.311-0.426-0.839-0.292-1.176 0.113L13.881 6.655z"
        stroke="none"
        transform="matrix(2.1398797035217285, 0, 0, 2.1398797035217285, 196.55894470214844, 125.50362396240234)"
        stroke-width="1"
      ></path>
      <path
        id="_qV9oC1kYU55QsEtEm364b"
        fill="#ff9796"
        d="M36.852 8c0.527 0 0.684-0.94 0.346-1.345l-2.451-3.259c-0.336-0.406-0.893-0.561-1.23-0.159     l-2.512 3.499C30.664 7.139 30.816 8 31.344 8H36.852z"
        stroke="none"
        transform="matrix(2.1398797035217285, 0, 0, 2.1398797035217285, 197.37376403808594, 126.07235717773438)"
        stroke-width="1"
      ></path>
      <path
        id="_sGu1y24gqWIA3PqIcwaFQ"
        fill="#ff9796"
        d="M22.354 6.659C22.014 7.063 22.167 8 22.695 8h5.075c0.527 0 0.686-0.942 0.354-1.349l-2.235-3.046     c-0.334-0.407-0.884-0.26-1.223 0.144L22.354 6.659z"
        stroke="none"
        transform="matrix(2.1398797035217285, 0, 0, 2.1398797035217285, 196.62496948242188, 125.29993438720703)"
        stroke-width="1"
      ></path>
      <path
        id="_wCRcYfnoO6iBKiEv6Hvl-"
        fill="#998c7c"
        d="M24.945 48.494c-11.433 0-20.733-9.301-20.733-20.732c0-7.169 3.626-13.733 9.701-17.558l2.025 3.217   c-4.963 3.125-7.926 8.486-7.926 14.341c0 9.336 7.596 16.932 16.933 16.932c9.336 0 16.93-7.596 16.93-16.932   c0-5.447-2.646-10.595-7.078-13.773l2.215-3.09c5.426 3.891 8.664 10.194 8.664 16.863C45.676 39.193 36.377 48.494 24.945 48.494z   "
        stroke="none"
        transform="matrix(2.0025532245635986, -0.0699375793337822, 0.0699375793337822, 2.0025532245635986, 199.49972534179688, 140.26596069335938)"
        stroke-width="1"
      ></path>
      <path
        id="_mqDpH6LWvmkvHidyTlc5v"
        d="M38.8 90c0.3 0 0.5-0.1 0.8-0.1c0.7-0.1 1.3-0.3 2-0.5c0.4-0.1 0.9-0.3 1.3-0.4c0.2-0.1 0.5-0.2 0.7-0.3  c1.6-0.6 3.2-1.4 4.7-2.3c0 0 0 0 0 0c0 0 0 0 0 0c3.1-1.9 5.9-4.5 8-7.5l0 0c0 0 0 0 0 0c0.3-0.5 0.7-1 1-1.5  c0.1-0.1 0.2-0.3 0.3-0.4c0.3-0.5 0.6-1 0.8-1.5c0.1-0.2 0.2-0.4 0.3-0.6c0.4-0.8 0.7-1.6 1.1-2.5c0.1-0.3 0.3-0.7 0.4-1  c0.1-0.4 0.2-0.7 0.3-1.1c0.1-0.5 0.2-0.9 0.4-1.4c0.1-0.3 0.1-0.7 0.2-1c0.1-0.5 0.2-1.1 0.2-1.6c0-0.3 0.1-0.5 0.1-0.8  c0.1-0.8 0.1-1.7 0.1-2.5c0-5.9-1.9-11.4-5.1-15.9c-1.9 1.2-3.6 2.8-5 4.6c2.1 3.3 3.4 7.2 3.4 11.4h0c0 0.6 0 1.3-0.1 1.9  c0 0.2 0 0.4-0.1 0.6c-0.1 0.5-0.1 0.9-0.2 1.3c0 0.2-0.1 0.4-0.1 0.6c-0.1 0.6-0.3 1.1-0.4 1.7c-0.1 0.2-0.2 0.4-0.2 0.7  c-0.1 0.3-0.2 0.7-0.4 1c-0.1 0.3-0.2 0.6-0.4 0.8c-0.1 0.2-0.2 0.5-0.4 0.7c-0.3 0.6-0.6 1.2-1 1.8c-2 3.2-4.9 5.8-8.2 7.5  c-0.6 0.3-1.3 0.6-1.9 0.9c-0.2 0.1-0.4 0.1-0.6 0.2c-0.4 0.1-0.8 0.3-1.2 0.4c-0.4 0.1-0.7 0.2-1.1 0.3c-0.2 0-0.4 0.1-0.6 0.1  c-0.5 0.1-1.1 0.2-1.6 0.3c-0.1 0-0.3 0-0.4 0c-0.6 0.1-1.2 0.1-1.9 0.1c-10 0-18.4-7.1-20.4-16.6C13.2 65.8 13 64.4 13 63  c0-11.5 9.3-20.8 20.8-20.8c3.4 0 6.6 0.8 9.4 2.3c1.5-1.8 3.1-3.4 5-4.9c-4.2-2.6-9.1-4.1-14.4-4.1C18.7 35.5 6.3 47.8 6.3 63  c0 6.6 2.4 12.7 6.3 17.5c5.1 6.1 12.7 10 21.2 10h0h0c0.8 0 1.7-0.1 2.5-0.1c0.3 0 0.5-0.1 0.8-0.1C37.6 90.2 38.2 90.1 38.8 90z"
        stroke="none"
        fill="#998c7c"
        transform="matrix(-0.9591867327690125, -0.08388010412454605, 0.08388010412454605, -0.9591867327690125, 316.3917236328125, 273.0854187011719)"
        stroke-width="1"
      ></path>
    </g>
    <path
      id="_9kauEh6zKbh1a1e0jRt9D"
      fill="#313e47"
      transform="matrix(0.9596365094184875, 0, 0, 0.9596365094184875, 249.14981079101562, 320.7494201660156)"
      text="Nuptiae"
      text-anchor="middle"
      font-size="100"
      letter-spacing="0"
      side="left"
      offset="0.5"
      dx="0"
      dy="0"
      space="preserve"
      href=""
      font-family="Alice"
      font-scale="contain"
      x="0"
      y="0"
      data-fl-textpath=""
      d="M-172.80000000000004 0.3Q-173.70000000000002 0.3 -174.15000000000003-0.35Q-174.60000000000002-1 -174.60000000000002-1.9L-174.60000000000002-1.9Q-174.50000000000003-3.4 -174.00000000000003-3.7Q-173.50000000000003-4 -172.10000000000002-4L-172.10000000000002-4Q-169.20000000000002-4 -167.85000000000002-5.05Q-166.50000000000003-6.1 -166.20000000000002-7.55Q-165.90000000000003-9 -165.80000000000004-11.7L-165.80000000000004-11.7L-165.60000000000002-51.4Q-165.60000000000002-54.4 -166.25000000000003-55.95Q-166.90000000000003-57.5 -168.30000000000004-58.2Q-169.70000000000002-58.9 -172.30000000000004-59.4L-172.30000000000004-59.4Q-174.00000000000003-59.7 -174.40000000000003-60Q-174.80000000000004-60.3 -174.80000000000004-61.7L-174.80000000000004-61.7Q-174.80000000000004-62.9 -174.15000000000003-63.3Q-173.50000000000003-63.7 -172.10000000000002-63.7L-172.10000000000002-63.7Q-165.90000000000003-63.7 -162.30000000000004-62.85Q-158.70000000000002-62 -155.95000000000002-59.8Q-153.20000000000002-57.6 -149.90000000000003-53.1L-149.90000000000003-53.1L-122.50000000000003-17.1L-122.20000000000003-17.1L-122.40000000000003-51.4Q-122.50000000000003-54.1 -122.80000000000003-55.55Q-123.10000000000002-57 -124.45000000000003-58.05Q-125.80000000000003-59.1 -128.70000000000005-59.1L-128.70000000000005-59.1L-129.3-59.1Q-130.3-59.1 -130.75000000000003-59.45Q-131.20000000000005-59.8 -131.3-61.2L-131.3-61.2Q-131.3-62.1 -130.8-62.75Q-130.3-63.4 -129.50000000000003-63.4L-129.50000000000003-63.4Q-123.10000000000002-63.1 -119.90000000000003-63.1L-119.90000000000003-63.1Q-118.00000000000003-63.1 -112.60000000000002-63.3L-112.60000000000002-63.3L-110.50000000000003-63.4Q-109.60000000000002-63.4 -109.15000000000003-62.75Q-108.70000000000003-62.1 -108.70000000000003-61.2L-108.70000000000003-61.2Q-108.80000000000003-59.7 -109.30000000000003-59.4Q-109.80000000000003-59.1 -111.20000000000003-59.1L-111.20000000000003-59.1Q-114.10000000000002-59.1 -115.45000000000003-58.05Q-116.80000000000003-57 -117.10000000000002-55.55Q-117.40000000000003-54.1 -117.50000000000003-51.4L-117.50000000000003-51.4L-117.70000000000003-1Q-117.80000000000003 0.3 -120.20000000000003 0.3L-120.20000000000003 0.3Q-122.10000000000002 0.3 -123.10000000000002-1L-123.10000000000002-1L-160.80000000000004-51.4L-161.10000000000002-51.4L-160.90000000000003-11.7Q-160.80000000000004-9 -160.50000000000003-7.55Q-160.20000000000002-6.1 -158.85000000000002-5.05Q-157.50000000000003-4 -154.60000000000002-4L-154.60000000000002-4L-154.00000000000003-4Q-153.00000000000003-4 -152.55000000000004-3.65Q-152.10000000000002-3.3 -152.00000000000003-1.9L-152.00000000000003-1.9Q-152.00000000000003-1 -152.45000000000002-0.35Q-152.90000000000003 0.3 -153.80000000000004 0.3L-153.80000000000004 0.3Q-160.20000000000002 0 -163.50000000000003 0L-163.50000000000003 0Q-165.50000000000003 0 -170.50000000000003 0.2L-170.50000000000003 0.2L-172.80000000000004 0.3ZM-81.90000000000002 1.2Q-88.70000000000002 1.2 -92.70000000000002-2.9Q-96.70000000000002-7 -96.70000000000002-13.7L-96.70000000000002-13.7L-96.70000000000002-32.2Q-96.70000000000002-34.8 -96.85000000000002-36Q-97.00000000000001-37.2 -98.10000000000002-38.1Q-99.20000000000002-39 -101.80000000000003-39L-101.80000000000003-39Q-103.00000000000001-39 -103.60000000000002-39.35Q-104.20000000000002-39.7 -104.20000000000002-41L-104.20000000000002-41Q-104.20000000000002-41.6 -103.80000000000003-42.15Q-103.40000000000002-42.7 -102.60000000000002-42.8L-102.60000000000002-42.8Q-96.30000000000003-43.7 -91.80000000000003-45.4L-91.80000000000003-45.4Q-90.40000000000002-45.9 -89.50000000000003-46L-89.50000000000003-46L-89.20000000000002-46Q-87.60000000000002-46 -87.60000000000002-44.1L-87.60000000000002-44.1L-87.60000000000002-13.8Q-87.60000000000002-9.2 -84.70000000000002-6.75Q-81.80000000000001-4.3 -78.00000000000003-4.3L-78.00000000000003-4.3Q-73.30000000000001-4.3 -70.00000000000003-6.6Q-66.70000000000002-8.9 -65.60000000000002-11.2L-65.60000000000002-11.2L-65.60000000000002-32.2Q-65.60000000000002-34.8 -65.75000000000003-36Q-65.90000000000002-37.2 -67.00000000000003-38.1Q-68.10000000000002-39 -70.70000000000002-39L-70.70000000000002-39Q-71.90000000000002-39 -72.50000000000003-39.35Q-73.10000000000002-39.7 -73.10000000000002-41L-73.10000000000002-41Q-73.10000000000002-41.6 -72.70000000000002-42.15Q-72.30000000000001-42.7 -71.50000000000003-42.8L-71.50000000000003-42.8Q-65.20000000000002-43.7 -60.70000000000002-45.4L-60.70000000000002-45.4Q-59.30000000000002-45.9 -58.40000000000002-46L-58.40000000000002-46L-58.10000000000002-46Q-56.50000000000002-46 -56.50000000000002-44.1L-56.50000000000002-44.1L-56.50000000000002-9.5Q-56.50000000000002-3.6 -48.60000000000002-3.6L-48.60000000000002-3.6Q-46.90000000000002-3.6 -46.90000000000002-1.7L-46.90000000000002-1.7Q-46.90000000000002-0.3 -48.60000000000002 0L-48.60000000000002 
0L-64.70000000000002 1.1Q-65.40000000000002 1.1 -65.50000000000003 0.65Q-65.60000000000002 0.2 -65.60000000000002-0.9L-65.60000000000002-0.9L-65.60000000000002-6.5L-65.80000000000001-6.5Q-68.70000000000002-3.8 -70.50000000000003-2.35Q-72.30000000000001-0.9 -75.15000000000002 0.15Q-78.00000000000003 1.2 -81.90000000000002 1.2L-81.90000000000002 1.2ZM-42.40000000000002 20.8Q-43.100000000000016 20.8 -43.55000000000002 20.2Q-44.00000000000002 19.6 -44.00000000000002 18.8L-44.00000000000002 18.8Q-43.90000000000002 17.5 -43.45000000000002 17.25Q-43.00000000000002 17 -41.70000000000002 17L-41.70000000000002 17Q-39.20000000000002 17 -38.10000000000002 16.1Q-37.000000000000014 15.2 -36.750000000000014 13.9Q-36.500000000000014 12.6 -36.500000000000014 10.2L-36.500000000000014 10.2L-36.500000000000014-33.2Q-36.500000000000014-35.8 -36.65000000000002-37Q-36.80000000000002-38.2 -37.90000000000002-39.1Q-39.00000000000002-40 -41.600000000000016-40L-41.600000000000016-40Q-42.80000000000002-40 -43.40000000000002-40.35Q-44.00000000000002-40.7 -44.00000000000002-42L-44.00000000000002-42Q-44.00000000000002-42.6 -43.600000000000016-43.15Q-43.20000000000002-43.7 -42.40000000000002-43.8L-42.40000000000002-43.8Q-35.90000000000002-44.8 -31.700000000000017-46.4L-31.700000000000017-46.4Q-30.000000000000018-46.9 -29.40000000000002-47L-29.40000000000002-47L-29.10000000000002-47Q-27.500000000000018-47 -27.500000000000018-45.1L-27.500000000000018-45.1L-27.500000000000018-40.3L-27.200000000000017-40.3Q-24.30000000000002-43 -20.40000000000002-44.75Q-16.500000000000018-46.5 -13.000000000000021-46.5L-13.000000000000021-46.5Q-7.000000000000021-46.5 -2.2500000000000213-43.5Q 2.4999999999999787-40.5  5.1999999999999815-35.05Q 7.899999999999984-29.6  7.899999999999984-22.7L 7.899999999999984-22.7Q 7.899999999999984-15.7  4.6999999999999815-10.25Q 1.4999999999999787-4.8 -3.8000000000000185-1.8Q-9.100000000000016 1.2 -15.000000000000018 1.2L-15.000000000000018 1.2Q-19.10000000000002 1.2 -21.90000000000002 0.35Q-24.700000000000017-0.5 -27.000000000000018-1.9L-27.000000000000018-1.9L-27.40000000000002-1.9L-27.40000000000002 10.2Q-27.40000000000002 12.6 -27.15000000000002 13.9Q-26.90000000000002 15.2 -25.80000000000002 16.1Q-24.700000000000017 17 -22.200000000000017 17L-22.200000000000017 17L-21.60000000000002 17Q-20.80000000000002 17 -20.40000000000002 17.3Q-20.000000000000018 17.6 -19.90000000000002 18.8L-19.90000000000002 18.8Q-19.90000000000002 19.6 -20.30000000000002 20.2Q-20.700000000000017 20.8 -21.500000000000018 20.8L-21.500000000000018 20.8Q-27.30000000000002 20.5 -32.000000000000014 20.5L-32.000000000000014 20.5Q-36.500000000000014 20.5 -42.40000000000002 20.8L-42.40000000000002 
20.8ZM-15.800000000000018-2.2Q-8.800000000000018-2.2 -5.5500000000000185-8.4Q-2.3000000000000185-14.6 -2.3000000000000185-22.4L-2.3000000000000185-22.4Q-2.3000000000000185-30.2 -5.90000000000002-35.85Q-9.500000000000021-41.5 -16.60000000000002-41.5L-16.60000000000002-41.5Q-20.10000000000002-41.5 -22.55000000000002-40.15Q-25.000000000000018-38.8 -27.40000000000002-36.3L-27.40000000000002-36.3L-27.40000000000002-9.5Q-26.200000000000017-6.5 -23.15000000000002-4.35Q-20.10000000000002-2.2 -15.800000000000018-2.2L-15.800000000000018-2.2ZM 33.19999999999999 1.7Q 28.299999999999986 1.7  24.799999999999986-1.9Q 21.299999999999986-5.5  21.299999999999986-12.2L 21.299999999999986-12.2L 21.299999999999986-41.6L 15.499999999999988-41.4Q 14.899999999999988-41.4  14.499999999999988-41.95Q 14.099999999999987-42.5  14.099999999999987-43.2L 14.099999999999987-43.2Q 14.099999999999987-44.1  14.449999999999987-44.75Q 14.799999999999986-45.4  15.499999999999988-45.5L 15.499999999999988-45.5Q 18.999999999999986-46.2  20.94999999999999-47.75Q 22.899999999999988-49.3  23.799999999999986-51.15Q 24.69999999999999-53  25.999999999999986-56.8L 25.999999999999986-56.8Q 26.499999999999986-58.1  28.19999999999999-58.1L 28.19999999999999-58.1Q 28.899999999999988-58.1  29.599999999999987-57.75Q 30.299999999999986-57.4  30.299999999999986-56.7L 30.299999999999986-56.7L 29.599999999999987-45.3L 41.29999999999998-46L 41.499999999999986-46Q 42.79999999999998-46  42.79999999999998-44.1L 42.79999999999998-44.1Q 42.79999999999998-43  42.44999999999999-42.05Q 42.09999999999999-41.1  41.59999999999999-41.1L 41.59999999999999-41.1L 30.399999999999988-41.4L 30.399999999999988-11Q 30.399999999999988-7.7  31.749999999999986-5.5Q 33.09999999999999-3.3  36.19999999999999-3.3L 36.19999999999999-3.3Q 39.29999999999998-3.3  41.69999999999999-4.4L 41.69999999999999-4.4Q 42.999999999999986-4.9  43.29999999999998-4.9L 43.29999999999998-4.9Q 43.999999999999986-4.9  44.399999999999984-4.35Q 44.79999999999999-3.8 
45.19999999999999-2.9L 45.19999999999999-2.9Q 45.29999999999999-2.7  45.29999999999999-2.4L
45.29999999999999-2.4Q 45.29999999999999-2  44.69999999999999-1.5L 44.69999999999999-1.5Q 41.79999999999998 0.4 
39.249999999999986 1.05Q 36.69999999999999 1.7  33.19999999999999 1.7L 33.19999999999999 1.7ZM 54.399999999999984
0.3Q 53.69999999999999 0.3  53.249999999999986-0.3Q 52.79999999999998-0.9  52.79999999999998-1.7L 52.79999999999998-1.7Q 52.899999999999984-3
53.399999999999984-3.25Q 53.899999999999984-3.5  55.19999999999999-3.5L 55.19999999999999-3.5Q 57.79999999999998-3.5  58.899999999999984-4.4Q 59.999999999999986-5.3
60.149999999999984-6.5Q 60.29999999999998-7.7  60.29999999999998-10.3L 60.29999999999998-10.3L 60.29999999999998-33.2Q 60.29999999999998-35.8 
60.149999999999984-37Q 59.999999999999986-38.2  58.899999999999984-39.1Q 57.79999999999998-40  55.19999999999999-40L 55.19999999999999-40Q 
53.999999999999986-40  53.399999999999984-40.35Q 52.79999999999998-40.7  52.79999999999998-42L 52.79999999999998-42Q 52.79999999999998-42.6 
53.19999999999999-43.15Q 53.59999999999999-43.7  54.399999999999984-43.8L 54.399999999999984-43.8Q 60.69999999999999-44.7  
65.19999999999999-46.4L 65.19999999999999-46.4Q 66.6-46.9  67.49999999999999-47L 67.49999999999999-47L 67.79999999999998-47Q 69.39999999999998-47  
69.39999999999998-45.1L 69.39999999999998-45.1L 69.39999999999998-10.3Q 69.39999999999998-7.7  69.6-6.5Q 69.79999999999998-5.3 
70.89999999999998-4.4Q 71.99999999999999-3.5  74.6-3.5L 74.6-3.5L 75.19999999999999-3.5Q 75.99999999999999-3.5  76.39999999999998-3.2Q 76.79999999999998-2.9 
76.89999999999998-1.7L 76.89999999999998-1.7Q 76.89999999999998-0.9  76.49999999999999-0.3Q 76.1 0.3  75.29999999999998 0.3L 
75.29999999999998 0.3Q 69.49999999999999 0  64.79999999999998 0L 64.79999999999998 0Q 60.29999999999998 0  54.399999999999984 0.3L
54.399999999999984 0.3ZM 64.29999999999998-58.1Q 61.499999999999986-58.1  59.59999999999999-59.85Q 57.69999999999999-61.6  
57.69999999999999-64.2L 57.69999999999999-64.2Q 57.69999999999999-66.5  59.999999999999986-68.3Q 62.29999999999998-70.1 
65.19999999999999-70.1L 65.19999999999999-70.1Q 67.69999999999999-70.1  69.29999999999998-68.35Q 70.89999999999998-66.6  70.89999999999998-63.9L
70.89999999999998-63.9Q 70.89999999999998-61.5  68.99999999999999-59.8Q 67.1-58.1  64.29999999999998-58.1L 64.29999999999998-58.1ZM 95.89999999999999 
1.2Q 89.89999999999999 1.2  86.19999999999999-2.2Q 82.5-5.6  82.5-10.7L 82.5-10.7Q 82.5-17  86.69999999999999-20.15Q 90.89999999999999-23.3  
96.69999999999999-24.25Q 102.5-25.2  111.69999999999999-25.7L 111.69999999999999-25.7L 111.69999999999999-33.6Q 111.69999999999999-38.5  109.25-41.05Q 106.8-43.6 
101.39999999999999-43.6L 101.39999999999999-43.6Q 98.3-43.6  96-41.7Q 93.69999999999999-39.8  93.69999999999999-36.6L 93.69999999999999-36.6Q
93.69999999999999-35  94.44999999999999-33.95Q 95.19999999999999-32.9  96.05-32.2Q 96.89999999999999-31.5  96.89999999999999-31.4L 
96.89999999999999-31.4Q 96.89999999999999-30.8  95.64999999999999-29.85Q 94.39999999999999-28.9  92.6-28.9L 92.6-28.9Q 89.6-28.9  87.85-31.1Q 86.1-33.3
86.1-36.3L 86.1-36.3Q 86.1-41.5  90.75-44Q 95.39999999999999-46.5  102-46.5L 102-46.5Q 110.19999999999999-46.5  115.35-43.4Q 120.5-40.3  
120.5-31.9L 120.5-31.9L 120.5-8.6Q 120.6-6.5  121.8-4.6Q 123-2.7  125.69999999999999-2.7L 125.69999999999999-2.7Q 126.5-2.7  126.85-2.4Q 127.19999999999999-2.1
127.19999999999999-1.1L 127.19999999999999-1.1Q 127.19999999999999 0.1  125.35 0.65Q 123.5 1.2  121.69999999999999 1.2L 121.69999999999999 1.2Q 117.89999999999999 1.2
115-1Q 112.1-3.2  111.69999999999999-6.9L 111.69999999999999-6.9Q 109.6-3  105.25-0.9Q 100.89999999999999 1.2  95.89999999999999 
1.2L 95.89999999999999 1.2ZM 99.1-4.2Q 102.5-4.2  105.39999999999999-5.9Q 108.3-7.6  110-10.55Q 111.69999999999999-13.5  111.69999999999999-17.1L
111.69999999999999-17.1L 111.69999999999999-22.8Q 101.19999999999999-22  96.89999999999999-19.4Q 92.6-16.8  92.6-11L 92.6-11Q 92.6-4.2 
99.1-4.2L 99.1-4.2ZM 156.3 1.2Q 148.8 1.2  143.55-2Q 138.3-5.2  135.60000000000002-10.7Q 132.9-16.2  132.9-22.9L 132.9-22.9Q 132.9-28.8  135.65-34.25Q 138.4-39.7
143.5-43.1Q 148.60000000000002-46.5  155.20000000000002-46.5L 155.20000000000002-46.5Q 164.10000000000002-46.5 
168.9-41.95Q 173.70000000000002-37.4  174.4-29.7L 174.4-29.7Q 174.4-26.4  172.60000000000002-25.2Q 170.8-24  
167.4-24L 167.4-24L 143.10000000000002-24Q 143.10000000000002-14.7  146.95000000000002-9.25Q 150.8-3.8  
158.9-3.8L 158.9-3.8Q 163.20000000000002-3.8  166.20000000000002-5.65Q 169.20000000000002-7.5  171.9-11.9L 171.9-11.9Q 172.4-12.4 
172.9-12.4L 172.9-12.4Q 173.60000000000002-12.4  174.10000000000002-12L 174.10000000000002-12Q 175.10000000000002-11.4  
175.10000000000002-10.2L 175.10000000000002-10.2Q 175.10000000000002-9.6  174.9-9.3L 174.9-9.3Q 171.8-4.3  167.05-1.55Q 162.3 1.2  
156.3 1.2L 156.3 1.2ZM 143.10000000000002-27.8L 159.4-27.8Q 164.5-27.8  164.8-32L 164.8-32Q 164.8-36.6  162.3-39.8Q 159.8-43  
155.20000000000002-43L 155.20000000000002-43Q 150.10000000000002-43  146.8-38.95Q 143.5-34.9  143.10000000000002-27.8L 143.10000000000002-27.8Z"
    ></path>
  </svg>
</svg>
